:SAMPLES-PER-SECOND 30
:FULLY-SPECIFIED
:DEGREES
21
root  9.58825 40.8046 -2.43947 -168.743 -84.5676 166.568
RightUpLeg  -1.13657 -9.51111 -8.96922
RightLeg  6.0475 0.934178 2.58431
RightFoot  -1.85149 -0.25504 2.89189
RightToes  0.00048216 0.542163 -0.142577
Spine  6.55881 0.980744 -3.43776
Spine1  1.05585 1.01579 -0.606814
HEad  -1.27784 2.00122 0.22372
LeftShoulder1  0.6779 -1.6566 -5.25797
LeftArm  -18.3879 12.3751 -8.05028
LeftForeArm  9.077 -1.74599 -1.16608
LeftHand  -0.25398 0.0180481 5.50724
RightShoulder  0.881663 1.75681 9.42268
RightArm  -22.0631 -6.20016 2.10334
RightForeArm  -4.52309 1.46479 2.18921
RightHand  -3.4302 10.3902 -25.2873
LeftUpLeg  2.11793 5.53348 2.18851
LeftLeg  3.60218 16.2377 -3.78574
LeftFoot  -3.58156 -0.0442211 1.06967
LeftToes  1.06244e-005 4.65856e-005 -8.18505e-006
22
root  9.57669 40.8041 -2.42377 -168.964 -84.5157 166.834
RightUpLeg  -1.15742 -9.46898 -8.9575
RightLeg  5.99085 0.929804 2.55879
RightFoot  -1.8208 -0.256842 2.91155
RightToes  0.00048216 0.542163 -0.142577
Spine  6.55466 1.00221 -3.45835
Spine1  1.10762 1.02805 -0.555416
HEad  -0.644062 2.73196 -0.149046
LeftShoulder1  0.697968 -1.7621 -5.39154
LeftArm  -18.0013 12.3745 -7.88819
LeftForeArm  9.37392 -1.69566 -1.2994
LeftHand  -0.25398 0.0180481 5.50724
RightShoulder  0.899326 1.76181 9.77923
RightArm  -21.7415 -6.1782 1.93675
RightForeArm  -4.41504 1.32539 2.25903
RightHand  -3.33966 10.1253 -25.0506
LeftUpLeg  2.10788 5.55199 2.18925
LeftLeg  3.57169 16.2775 -3.82144
LeftFoot  -3.59972 -0.0440523 1.06705
LeftToes  1.06244e-005 4.65856e-005 -8.18505e-006
23
root  9.56349 40.8034 -2.40183 -168.89 -84.4705 166.806
RightUpLeg  -1.19038 -9.47493 -8.99812
RightLeg  5.9678 1.01059 2.5512
RightFoot  -1.80899 -0.261995 2.98384
RightToes  0.00048216 0.542163 -0.142577
Spine  6.5135 1.01482 -3.48406
Spine1  1.21004 1.02784 -0.481254
HEad  -0.0386311 3.77352 -0.672676
LeftShoulder1  0.74344 -2.01511 -5.63931
LeftArm  -17.314 12.3058 -7.53545
LeftForeArm  10.1648 -1.2968 -1.48271
LeftHand  -0.25398 0.0180481 5.50724
RightShoulder  0.894207 1.70692 9.87031
RightArm  -21.4174 -6.13253 2.00726
RightForeArm  -4.36567 1.03239 2.32442
RightHand  -3.28376 10.0207 -24.81
LeftUpLeg  2.08863 5.54037 2.14279
LeftLeg  3.55279 16.3449 -3.84335
LeftFoot  -3.62624 -0.0442461 1.07006
LeftToes  1.06244e-005 4.65856e-005 -8.18505e-006
24
root  9.553 40.8026 -2.37718 -168.55 -84.4432 166.522
RightUpLeg  -1.24934 -9.51306 -9.06574
RightLeg  5.97493 1.07872 2.54821
RightFoot  -1.80113 -0.26606 3.04064
RightToes  0.00048216 0.542163 -0.142577
Spine  6.44431 1.00631 -3.59004
Spine1  1.36396 0.980575 -0.291821
HEad  0.425037 5.03555 -1.30862
LeftShoulder1  0.785763 -2.23135 -5.90245
LeftArm  -16.6849 12.243 -7.22965
LeftForeArm  10.7031 -0.842581 -1.64891
LeftHand  -0.25398 0.0180481 5.50724
RightShoulder  0.885751 1.69939 9.70965
RightArm  -21.2672 -6.1567 2.20706
RightForeArm  -4.17933 0.742481 2.32254
RightHand  -3.26461 10.0677 -24.6014
LeftUpLeg  2.04049 5.48027 2.04395
LeftLeg  3.54376 16.4448 -3.82641
LeftFoot  -3.63555 -0.0466365 1.10722
LeftToes  1.06244e-005 4.65856e-005 -8.18505e-006
25
root  9.54197 40.8017 -2.35293 -168.327 -84.4102 166.345
RightUpLeg  -1.29832 -9.52459 -9.10979
RightLeg  5.9819 1.07163 2.52399
RightFoot  -1.79776 -0.266742 3.04488
RightToes  0.00048216 0.542163 -0.142577
Spine  6.37355 0.985964 -3.68924
Spine1  1.55587 0.920472 -0.100651
HEad  0.746761 6.18538 -1.79052
LeftShoulder1  0.79996 -2.30063 -5.99421
LeftArm  -16.422 12.2463 -7.17529
LeftForeArm  10.6986 -0.657746 -1.73019
LeftHand  -0.25398 0.0180481 5.50724
RightShoulder  0.892397 1.75011 9.62322
RightArm  -21.2626 -6.18981 2.19083
RightForeArm  -3.89675 0.570212 2.27474
RightHand  -3.2648 10.1506 -24.4784
LeftUpLeg  2.00689 5.40944 1.9467
LeftLeg  3.52946 16.553 -3.7921
LeftFoot  -3.63715 -0.0487746 1.14045
LeftToes  1.06244e-005 4.65856e-005 -8.18505e-006
26
root  9.52692 40.8005 -2.32939 -168.394 -84.3626 166.422
RightUpLeg  -1.30339 -9.49138 -9.12575
RightLeg  5.98199 1.07886 2.47743
RightFoot  -1.8122 -0.271084 3.0968
RightToes  0.00048216 0.542163 -0.142577
Spine  6.35361 0.96035 -3.67768
Spine1  1.72774 0.88913 -0.07147
HEad  1.01549 7.1246 -1.91417
LeftShoulder1  0.784297 -2.24355 -5.84063
LeftArm  -16.5661 12.2444 -7.31531
LeftForeArm  10.756 -0.78029 -1.69329
LeftHand  -0.25398 0.0180481 5.50724
RightShoulder  0.893761 1.7429 9.73271
RightArm  -21.2886 -6.12159 1.94201
RightForeArm  -3.93311 0.524724 2.25765
RightHand  -3.2854 10.1814 -24.5794
LeftUpLeg  2.02214 5.37905 1.89523
LeftLeg  3.52618 16.6314 -3.77942
LeftFoot  -3.66815 -0.0484609 1.13557
LeftToes  1.06244e-005 4.65856e-005 -8.18505e-006
